<svg viewBox="-64 -64 128 128" xmlns="http://www.w3.org/2000/svg">
  <defs>
    <style>
      @import url("https://fonts.googleapis.com/css2?family=Platypi&amp;display=swap");

      text {
        font-size: 30px;
        font-family: "Platypi", cursive;
        letter-spacing: 1px;
      }
    </style>
  </defs>
  <mask id="mask">
    <rect x="-1000" y="-1000" width="2000" height="2000" fill="white"></rect>
    <circle cx="0" cy="0" r="25" fill="black"></circle>
  </mask>
  <g mask="url(#mask)">
    <g transform="rotate(0) translate(40, 0) rotate(45)">
      <path d="M -25 0 C 0 -20 10 0 25 0" fill="#5fbc95"></path>
      <path
        d="M -25 0 C 0 -20 10 0 25 0"
        fill="#00a896"
        transform="scale(-1, -1)"
      ></path>
    </g>
    <g transform="rotate(-45) translate(40, 0) rotate(45)">
      <path d="M -25 0 C 0 -20 10 0 25 0" fill="#94cf9a"></path>
      <path
        d="M -25 0 C 0 -20 10 0 25 0"
        fill="#5fbc95"
        transform="scale(-1, -1)"
      ></path>
    </g>
    <g transform="rotate(-90) translate(40, 0) rotate(45)">
      <path d="M -25 0 C 0 -20 10 0 25 0" fill="#c4e1a8"></path>
      <path
        d="M -25 0 C 0 -20 10 0 25 0"
        fill="#94cf9a"
        transform="scale(-1, -1)"
      ></path>
    </g>
    <g transform="rotate(-135) translate(40, 0) rotate(45)">
      <path d="M -25 0 C 0 -20 10 0 25 0" fill="#f0f3bd"></path>
      <path
        d="M -25 0 C 0 -20 10 0 25 0"
        fill="#c4e1a8"
        transform="scale(-1, -1)"
      ></path>
    </g>
    <g transform="rotate(-180) translate(40, 0) rotate(45)">
      <path d="M -25 0 C 0 -20 10 0 25 0" fill="#c4e1a8"></path>
      <path
        d="M -25 0 C 0 -20 10 0 25 0"
        fill="#f0f3bd"
        transform="scale(-1, -1)"
      ></path>
    </g>
    <g transform="rotate(-225) translate(40, 0) rotate(45)">
      <path d="M -25 0 C 0 -20 10 0 25 0" fill="#94cf9a"></path>
      <path
        d="M -25 0 C 0 -20 10 0 25 0"
        fill="#c4e1a8"
        transform="scale(-1, -1)"
      ></path>
    </g>
    <g transform="rotate(-270) translate(40, 0) rotate(45)">
      <path d="M -25 0 C 0 -20 10 0 25 0" fill="#5fbc95"></path>
      <path
        d="M -25 0 C 0 -20 10 0 25 0"
        fill="#94cf9a"
        transform="scale(-1, -1)"
      ></path>
    </g>
    <g transform="rotate(-315) translate(40, 0) rotate(45)">
      <path d="M -25 0 C 0 -20 10 0 25 0" fill="#00a896"></path>
      <path
        d="M -25 0 C 0 -20 10 0 25 0"
        fill="#5fbc95"
        transform="scale(-1, -1)"
      ></path>
    </g>
  </g>
  <path
    fill="none"
    stroke="#00a896"
    stroke-width="5"
    stroke-linecap="square"
    stroke-linejoin="round"
    d="M -9 -9 L -18 0 L -9 9 M 9 -9 L 18 0 L 9 9"
  ></path>
  <path
    fill="none"
    stroke="#b4dba2"
    stroke-width="5"
    stroke-linecap="square"
    stroke-linejoin="round"
    d="M -9 9 L 9 -9"
  ></path>
</svg>
